<svg id="Objects" xmlns="http://www.w3.org/2000/svg" viewBox="0 0 81.4 60.21"><defs><style>.cls-1{fill:none;stroke:#262626;stroke-miterlimit:10;stroke-width:3.09px;}</style></defs><title>track-bahrain</title><g id="bahrain"><path class="cls-1" d="M316.74,69.58H262.24a1.34,1.34,0,0,1-1.16-2h0a9.32,9.32,0,0,0,.75-7.64h0A22.66,22.66,0,0,1,261,48.47l5.86-31.25a3.51,3.51,0,0,1,4.68-2.64h0a3.51,3.51,0,0,1,2.1,2.2l1.15,3.51a11.9,11.9,0,0,0,5.36,6.6h0a11.9,11.9,0,0,1,5.87,8.9h0a14.4,14.4,0,0,0,4.9,9.21l6.93,6a0.81,0.81,0,0,1-.59,1.43l-15.77-1.18a14.48,14.48,0,0,0-11.74,4.64h0a0.71,0.71,0,0,0,.52,1.19h46.48A2.42,2.42,0,0,0,319,53.84h0a21.33,21.33,0,0,0-10.5-12h0a5.76,5.76,0,0,1-2.82-7.07l4.2-11.83a1.88,1.88,0,0,1,3.37-.36l25,40.54A4.23,4.23,0,0,1,336.82,69h0a4.23,4.23,0,0,1-2.12.57h-18Z" transform="translate(-259.08 -12.81)"/><line class="cls-1" x1="42.89" y1="53.34" x2="42.89" y2="60.21"/></g></svg>