<svg id="Objects" xmlns="http://www.w3.org/2000/svg" viewBox="0 0 102.09 54.36"><defs><style>.cls-1{fill:none;stroke:#262626;stroke-miterlimit:10;stroke-width:3.09px;}</style></defs><title>track-australia</title><path class="cls-1" d="M108.27,65H74.83a7.55,7.55,0,0,1-5.73-2.64h0a7.55,7.55,0,0,0-5.73-2.64H57.72a45.17,45.17,0,0,1-10.84-1.32l-4.61-1.14a2.9,2.9,0,0,1-1.7-4.46h0a2.9,2.9,0,0,0-.63-3.95l-4.15-3.18a6.31,6.31,0,0,1-2.28-6.57l3-11.94,0.81-2.62a5.26,5.26,0,0,1,5-3.71h0a5.26,5.26,0,0,0,2.6-.69l3.65-2.08a6,6,0,0,1,5.7-.1l11.53,6a2.9,2.9,0,0,1,1,4.23h0a2.88,2.88,0,0,0-.32,2.71C68,34.32,72.26,42.53,82.65,44.33c9.44,1.63,14.16-1.68,16.08-3.71A5.17,5.17,0,0,1,102,39l8.87-.82a13.5,13.5,0,0,1,6.85,1.16l12.64,5.76a3.34,3.34,0,0,1,1.7,4.33c-1.7,4.09-4.66,10.88-5.4,10.56s-7.76-2.63-11.39-3.81a1.3,1.3,0,0,0-1.67,1.52l1.26,5.67A1.3,1.3,0,0,1,113.58,65h-5.31Z" transform="translate(-31.77 -15.73)"/><line class="cls-1" x1="58.57" y1="44.32" x2="58.57" y2="54.36"/></svg>