<svg id="Objects" xmlns="http://www.w3.org/2000/svg" viewBox="0 0 117.49 62.22"><defs><style>.cls-1{fill:none;stroke:#262626;stroke-miterlimit:10;stroke-width:3.09px;}</style></defs><title>track-japan</title><g id="japan"><path class="cls-1" d="M25.59,361.83l-0.09-1.3a4,4,0,0,1,3.22-4.2l1.7-.34a5.6,5.6,0,0,1,3.36.56l2.73,1.58a4.56,4.56,0,0,0,5-.29c2.09-1.56,4.84-3.56,5.2-3.51,1.92,0.26,4.11,1.88,5.69,3.27a3.6,3.6,0,0,0,4.64.14l2.9-2.32a3.86,3.86,0,0,1,5.89,1.36l0,0.08a7.28,7.28,0,0,0,8.33,3.94h0a7.28,7.28,0,0,0,4.83-4l0.93-2a7.28,7.28,0,0,0,.69-3.49l-0.61-11.73a2.81,2.81,0,0,1,.55-1.82l3.76-5.06A2.81,2.81,0,0,1,88,332l9.21,5.12a5.43,5.43,0,0,1,2,1.89l5.09,8.24a2.48,2.48,0,0,0,3.53.73h0a2.48,2.48,0,0,0,.86-3l-3.79-8.9a3.37,3.37,0,0,1,.88-3.85l0.89-.78a25.86,25.86,0,0,1,5-3.45h0a25.86,25.86,0,0,1,18.42-2.11l1.72,0.44a6.44,6.44,0,0,0,7.05-2.8h0a6.44,6.44,0,0,0-.58-7.65l-2-2.29a6.44,6.44,0,0,0-7.75-1.55l-28,14a19.75,19.75,0,0,0-5.86,4.46l-5.13,5.71a10.43,10.43,0,0,0-2.62,8l1.4,14.25a2.43,2.43,0,0,1-1.3,2.4L84.8,362a2.35,2.35,0,0,0-1.22,2.56v0.06a2.44,2.44,0,0,1-2.36,2.95l-48.92.46A6.68,6.68,0,0,1,25.59,361.83Z" transform="translate(-23.94 -309.81)"/><line class="cls-1" x1="26.32" y1="62.21" x2="26.35" y2="55.06"/></g></svg>