<svg id="Objects" xmlns="http://www.w3.org/2000/svg" viewBox="0 0 81.3 45.61"><defs><style>.cls-1{fill:none;stroke:#262626;stroke-miterlimit:10;stroke-width:3.09px;}</style></defs><title>track-azerbaijan</title><path class="cls-1" d="M458.07,34.65l-1.59-10.48a2.06,2.06,0,0,0-2.35-1.72L436,25.29a2,2,0,0,0-1.68,2.39l0.77,4a2,2,0,0,1-1.63,2.38l-15.62,2.85a1.73,1.73,0,0,0-1.42,1.71v0.69A1.73,1.73,0,0,1,415.1,41l-8.64,2.25A1.93,1.93,0,0,1,404,41.39h0a1.93,1.93,0,0,0-1.88-1.93l-0.88,0a1.93,1.93,0,0,1-1.88-1.93V37A1.93,1.93,0,0,0,397.32,35l-10.07.77a4.33,4.33,0,0,0-3.8,3l-3.27,10.29a6.38,6.38,0,0,0,1.39,6.25l7.74,8.41a3.63,3.63,0,0,0,5.77-.57l1.1-1.8,6.35-2.15a4.33,4.33,0,0,0,2.71-2.69l1-2.76a5.78,5.78,0,0,1,3-3.35l5.56-2.61a66.27,66.27,0,0,1,13.81-4.7L456.48,37A2.06,2.06,0,0,0,458.07,34.65Z" transform="translate(-378.34 -20.88)"/><line class="cls-1" x1="67.92" y1="13.35" x2="70.5" y2="22.8"/></svg>