<svg id="Objects" xmlns="http://www.w3.org/2000/svg" viewBox="0 0 103.72 61.23"><defs><style>.cls-1{fill:none;stroke:#262626;stroke-miterlimit:10;stroke-width:3.09px;}</style></defs><title>track-austria</title><path class="cls-1" d="M78.11,232.41s-10.73-9.85-16.59-18.75-12.45-17.57-17.62-21a131.53,131.53,0,0,1-12.23-10,1.53,1.53,0,0,1,.68-2.63L43,177.45S89.8,173.11,92.09,175s-0.89,13.2-9.52,14.08-23.84-1.54-23.42,5.63,11.7,19,15.42,16.31,4.14-10.78,10.69-11.64,38-9,40.28-7.1,8.65,13.16,5.26,15.91S81.41,235.58,78.11,232.41Z" transform="translate(-29.62 -173)"/><line class="cls-1" x1="79.75" y1="50.65" x2="76.31" y2="45.08"/></svg>