<svg id="Objects" xmlns="http://www.w3.org/2000/svg" viewBox="0 0 107.87 52.99"><defs><style>.cls-1{fill:none;stroke:#262626;stroke-miterlimit:10;stroke-width:3.09px;}</style></defs><title>track-canada</title><path class="cls-1" d="M317.27,115.15s16.83,5.43,21.35,7.68a63,63,0,0,1,8.39,5.41,5.24,5.24,0,0,0,4.33.89l0.38-.09a2.26,2.26,0,0,1,2.61,1.34h0a2.26,2.26,0,0,1-1.24,3l-12.19,4.95a6.43,6.43,0,0,1-6-.65h0a6.43,6.43,0,0,0-5-1l-7.14,1.59a5.57,5.57,0,0,1-4-.61l-7.17-4.13a5.65,5.65,0,0,0-6.33.47h0a5.65,5.65,0,0,1-6.19.55c-2.8-1.51-7.08-3.89-11.71-6.73A47.09,47.09,0,0,1,276.74,119a4.14,4.14,0,0,1-.86-3.94h0a4.16,4.16,0,0,0-.43-3.35,38.63,38.63,0,0,0-10-10.93,73,73,0,0,0-14.49-8,2.06,2.06,0,0,1-1.18-2.5h0a2.07,2.07,0,0,1,2.7-1.34c4.63,1.72,16,5.79,23.41,6.89,8.07,1.2,29.93,10.82,36.09,13.58A2.86,2.86,0,0,1,313.7,112h0a2.86,2.86,0,0,0,2,2.63Z" transform="translate(-248.18 -87.32)"/><line class="cls-1" x1="88.68" y1="38.84" x2="91.98" y2="31.9"/></svg>