<svg id="Objects" xmlns="http://www.w3.org/2000/svg" viewBox="0 0 104.97 44.29"><defs><style>.cls-1{fill:none;stroke:#262626;stroke-miterlimit:10;stroke-width:3.09px;}</style></defs><title>track-monaco</title><g id="monaco"><path class="cls-1" d="M156.33,105.64s10.22-11,13.64-10.42,11.39,7,18.63,10.39,16.72,9,19.77,8.78,5.35-4.11,5.33-6.93,1.44-3.87,3.8-5.07,14.82-3.6,16.1-2.66-4.56,10.6-1.53,11.39c1.94,0.5,3.46-2.59,4.3-4.88a2.31,2.31,0,0,1,3.08-1.32l3.26,1.39a2.84,2.84,0,0,1,1.25,4.2,22.2,22.2,0,0,1-14.37,9.37,51.2,51.2,0,0,1-28.42-2.62,53.6,53.6,0,0,1-8.35-4.13,2,2,0,0,0-2.28.09c-0.74.56-1.75,1.08-2.62,0.55-1.56-.94-2.49-2.22-4-4.23s-10.76-8.64-13.44-8-9.21,5.2-9.59,7,1.12,3.18-.31,5.78-3.74,5.24-5.07,5.07a3.65,3.65,0,0,0-4,2.43c-0.82,2.17-3.27,6.72-1.67,8.84s2.18,4.91,0,5.65-7.12-3-7.31-4.8,1.4-3.46,2.67-6S151.16,110.72,156.33,105.64Z" transform="translate(-141.02 -93.65)"/><line class="cls-1" x1="10.8" y1="10.4" x2="16.4" y2="15.85"/></g></svg>