<svg id="Objects" xmlns="http://www.w3.org/2000/svg" viewBox="0 0 88.69 58.7"><defs><style>.cls-1{fill:none;stroke:#262626;stroke-miterlimit:10;stroke-width:3.09px;}</style></defs><title>track-singapore</title><path class="cls-1" d="M228,247.78l-3.47-1.18a3.14,3.14,0,0,1-1.21-.76l-2.17-2.18a1.5,1.5,0,0,0-2.56.91L217.84,253a4.46,4.46,0,0,0,.34,2.18l3.68,8.58a4.79,4.79,0,0,1,.35,2.46h0a4.79,4.79,0,0,1-4.94,4.21l-20.41-.8a5,5,0,0,1-2.64-.88l-15.34-10.54a3,3,0,0,0-4.48,1.47l-2.69,7.73a0.67,0.67,0,0,1-1.08.27L165,262.52a3,3,0,0,0-4.53.64L149.56,281a1.8,1.8,0,0,0,.43,2.36l3.89,3a1.8,1.8,0,0,1,.59,2l-0.66,1.81a1.8,1.8,0,0,0,.6,2l8.29,6.28a1.13,1.13,0,0,0,1.77-.58l7.09-23.7a0.67,0.67,0,0,1,1.14-.24l4.08,4.75a5.38,5.38,0,0,0,4.08,1.88h6.62A1.51,1.51,0,0,1,189,282.2v2.13a1.51,1.51,0,0,0,1.51,1.51h11a2.18,2.18,0,0,0,2.18-2.18v-2.11a2.06,2.06,0,0,1,2.06-2.06H210a2.06,2.06,0,0,1,2,1.61l0.78,3.42a2.06,2.06,0,0,0,1.87,1.6l12.2,0.84a2.91,2.91,0,0,0,2.24-.83l3.62-3.58a2.91,2.91,0,0,0,.85-2.4l-3.39-29.75A3.14,3.14,0,0,0,228,247.78Z" transform="translate(-147.76 -241.66)"/><line class="cls-1" x1="81.3" y1="27.87" x2="88.51" y2="27.01"/></svg>