<svg id="Objects" xmlns="http://www.w3.org/2000/svg" viewBox="0 0 83.39 73.73"><defs><style>.cls-1{fill:none;stroke:#262626;stroke-miterlimit:10;stroke-width:3.09px;}</style></defs><title>track-hungary</title><path class="cls-1" d="M263.31,209.5V172.13a5,5,0,0,1,5-5h0a5,5,0,0,1,5,5v14.69a3.64,3.64,0,0,0,3.64,3.64h0a3.64,3.64,0,0,0,3.27-2l3.33-6.8a6.89,6.89,0,0,1,4.71-3.7l22-4.84a35.46,35.46,0,0,1,7.63-.83h2.57a5.75,5.75,0,0,0,4.52-2.19l8.37-10.64a4.18,4.18,0,0,1,3.28-1.59h0a4.18,4.18,0,0,1,4.16,4.57L339,180.32a3.49,3.49,0,0,1-2.63,3.05h0a3.49,3.49,0,0,0-1.89,1.22L328.64,192a4.73,4.73,0,0,0-.3,5.43l1.59,2.54a5.59,5.59,0,0,1-1.73,7.66L321.44,212a12.34,12.34,0,0,0-5.09,6.6l-1.68,5.21a6.78,6.78,0,0,1-6.7,4.69L295.72,228a6.86,6.86,0,0,1-6.38-5.11h0a6.86,6.86,0,0,0-2.48-3.72l-3.92-3a6.86,6.86,0,0,1-2.6-4.25l-0.51-2.85a3,3,0,0,0-2.91-2.44h0a3,3,0,0,0-3,3v10.52a5.32,5.32,0,0,1-5.32,5.32h0a5.32,5.32,0,0,1-5.32-5.32V209.5Z" transform="translate(-258.86 -156.28)"/><line class="cls-1" x1="8.84" y1="53.87" y2="53.87"/></svg>