<svg id="Objects" xmlns="http://www.w3.org/2000/svg" viewBox="0 0 91.95 58.67"><defs><style>.cls-1{fill:none;stroke:#262626;stroke-miterlimit:10;stroke-width:3.09px;}</style></defs><title>track-mexico</title><g id="mexico"><path class="cls-1" d="M258.89,362v-2.3a2.79,2.79,0,0,0-1.19-2.28l-1.17-.82a2.79,2.79,0,0,1-.9-3.52l15.62-31.68a1.72,1.72,0,0,0-.69-2.25L268.63,318a1.72,1.72,0,0,1-.2-2.85l4.06-3.14a1.86,1.86,0,0,1,3,1.47v14.69a3.68,3.68,0,0,0,2.24,3.39l3.46,1.47a3.68,3.68,0,0,1,2.17,2.69h0a3.68,3.68,0,0,0,3.67,3l4.19-.06a5.94,5.94,0,0,1,5.3,3.08h0a5.94,5.94,0,0,0,2.9,2.62l7.16,3a12.65,12.65,0,0,0,4.74,1l17,0.25a3,3,0,0,1,2.92,2.36l1.48,6.49a0.92,0.92,0,0,0,1.58.42l1.82-2a0.92,0.92,0,0,1,1.14-.18l2.65,1.53a0.92,0.92,0,0,0,.48.12l2.62-.06a1.19,1.19,0,0,1,1,1.83l-1.74,2.73a6.25,6.25,0,0,1-5.27,2.89H261.68A2.79,2.79,0,0,1,258.89,362Z" transform="translate(-253.81 -310.07)"/><line class="cls-1" x1="63.11" y1="50.53" x2="63.11" y2="58.67"/></g></svg>