<svg id="Objects" xmlns="http://www.w3.org/2000/svg" viewBox="0 0 105.01 65.14"><defs><style>.cls-1{fill:none;stroke:#262626;stroke-miterlimit:10;stroke-width:3.09px;}</style></defs><title>track-abu_dhabi</title><path class="cls-1" d="M64.21,411.31L75.85,434a4,4,0,0,0,5.25,1.8L89.16,432a4,4,0,0,0,2.3-3.79c-0.15-3.37.39-9.07,5.35-11.08,7.22-2.92,12-1.69,18.43-4.91a17.42,17.42,0,0,0,6.6-5.21,3.45,3.45,0,0,1,3.09-1.46c2.88,0.24,7.68.35,8.43-1.46,1.07-2.61.61-4.45-7.52-4.45H54.14a2.77,2.77,0,0,0-2.59,3.76h0a2.77,2.77,0,0,1-.85,3.14,42.63,42.63,0,0,0-7.79,8.16c-3.89,5.53-8.39,17.81-10.24,25.8-1.21,5.25-.83,12.9-0.43,17.52a3.23,3.23,0,0,0,4.05,2.84,17.29,17.29,0,0,1,3.95-.71c2.46,0,6.55,2.87,8.19.82,1.41-1.76-5.48-14.52-7.46-18.1a3,3,0,0,1-.32-2l1-5.26a3,3,0,0,1,1.57-2.13l2-1a3,3,0,0,1,4.25,1.67l0.77,2.17a3,3,0,0,0,4.18,1.7l4.39-2.15A3,3,0,0,0,60,431.52l-7.62-12.27a3.54,3.54,0,0,1,.83-4.66l5.69-4.46A3.54,3.54,0,0,1,64.21,411.31Z" transform="translate(-30.31 -398.11)"/><line class="cls-1" x1="38.6" y1="32.57" x2="46.38" y2="28.26"/></svg>