<svg id="Objects" xmlns="http://www.w3.org/2000/svg" viewBox="0 0 101.65 79.88"><defs><style>.cls-1{fill:none;stroke:#262626;stroke-miterlimit:10;stroke-width:3.09px;}</style></defs><title>track-usa</title><g id="usa"><path class="cls-1" d="M199.18,322.14s18.48-8.27,29.67-14.59c5-2.85,8.53-4.58,10.84-5.62a1.67,1.67,0,0,1,2.21,2.22l-7.12,15.64a9.41,9.41,0,0,1-3.19,3.82l-5,3.47a7.66,7.66,0,0,1-4.38,1.37H219a5.59,5.59,0,0,0-4.49,2.25l-1.39,1.86a4.63,4.63,0,0,1-5.1,1.69c-2.58-.82-6.2-1.47-8.21.41-3.35,3.13-1.62,9.51-4.43,11.46s-2.81,3.78-2.81,5.3c0,1.1-6.25,8.23-9.65,12a4.61,4.61,0,0,0-.65,5.21l3.73,7.2a1.85,1.85,0,0,1-2.36,2.55L145,362.14a2.48,2.48,0,0,1-.64-4.18l9-7.61a2.76,2.76,0,0,1,3.45-.11c4.6,3.44,17,12,20.64,7.25s-2.54-13.72-5.35-17.47a1.28,1.28,0,0,1,.89-2c1.6-.15,3.63,0,4.45,1.36a10.57,10.57,0,0,1,1.28,3.35,1.49,1.49,0,0,0,1.76,1.19l2.85-.58a1.49,1.49,0,0,0,.75-2.51l-7-7a2,2,0,0,1,.7-3.3Z" transform="translate(-141.96 -300.23)"/><line class="cls-1" x1="71.49" y1="10.23" x2="75.17" y2="17.8"/></g></svg>