<svg id="Objects" xmlns="http://www.w3.org/2000/svg" viewBox="0 0 79.02 53.23"><defs><style>.cls-1{fill:none;stroke:#262626;stroke-miterlimit:10;stroke-width:3.09px;}</style></defs><title>track-china</title><g id="china"><path class="cls-1" d="M175.58,60.66l14.27-38.23a5.86,5.86,0,0,1,7.22-3.55h0A4.43,4.43,0,0,1,200,24.34l-0.58,2a2.14,2.14,0,0,1-2.06,1.55h0a2.14,2.14,0,0,1-2-1.4l-0.28-.76a1.78,1.78,0,0,0-2.55-.92h0a1.78,1.78,0,0,0-.8,2.08h0a5.63,5.63,0,0,0,6,3.86l11.94-1.44a19.48,19.48,0,0,1,6.67.35l8.56,2a1.2,1.2,0,0,1,.15,2.29h0a27.87,27.87,0,0,1-12.38,1.58l-5-.5a5.86,5.86,0,0,0-5.95,3.48h0a8.4,8.4,0,0,0,.83,8.2l2.11,3a4,4,0,0,1-.07,4.75h0A4,4,0,0,1,201.08,56l-2.61-.19a3.08,3.08,0,0,0-3.19,3.95h0a3.08,3.08,0,0,0,2.77,2.2l23,1.42A1.92,1.92,0,0,0,223,61h0a2.65,2.65,0,0,1,3.26-3.26c2.22,0.65,4.48,2.11,4.48,5.33,0,6.35-13.39,5.66-19.4,5.66l-55.09,0a1.45,1.45,0,0,1-.73-2.69h0a13.1,13.1,0,0,1,7.13-1.83l7.22,0.24A5.87,5.87,0,0,0,175.58,60.66Z" transform="translate(-153.27 -17.07)"/><line class="cls-1" x1="27.91" y1="20.9" x2="33.45" y2="22.96"/></g></svg>